<svg xmlns="http://www.w3.org/2000/svg" width="1152" viewBox="0 0 1152 288" height="288" version="1.0"><defs><clipPath id="a"><path d="M 1005 150 L 1035 150 L 1035 223.800781 L 1005 223.800781 Z M 1005 150"/></clipPath><clipPath id="b"><path d="M 1037 150 L 1067 150 L 1067 223.800781 L 1037 223.800781 Z M 1037 150"/></clipPath><clipPath id="c"><path d="M 988 28.800781 L 1043 28.800781 L 1043 82 L 988 82 Z M 988 28.800781"/></clipPath><clipPath id="d"><path d="M 975.335938 77 L 983 77 L 983 99 L 975.335938 99 Z M 975.335938 77"/></clipPath><clipPath id="e"><path d="M 1030 153 L 1042 153 L 1042 223.800781 L 1030 223.800781 Z M 1030 153"/></clipPath><clipPath id="f"><path d="M 1124 101 L 1142.585938 101 L 1142.585938 120 L 1124 120 Z M 1124 101"/></clipPath></defs><path fill="#E8E8E8" d="M 1006.679688 222.476562 C 1004.53125 221.75 1025.074219 154.6875 1025.074219 154.6875 C 1025.875 152.28125 1028.277344 150.917969 1030.425781 151.632812 C 1032.582031 152.359375 1033.667969 154.898438 1032.859375 157.300781 C 1032.859375 157.300781 1008.828125 223.191406 1006.679688 222.476562"/><g clip-path="url(#a)"><path stroke-linecap="round" transform="matrix(.08426 0 0 -.0843 879.831 305.493)" fill="none" stroke-linejoin="round" d="M 1505.491963 984.744088 C 1479.993421 993.315904 1723.805844 1788.780369 1723.805844 1788.780369 C 1733.309846 1817.322197 1761.821852 1833.492811 1787.320394 1825.013664 C 1812.911658 1816.395514 1825.800012 1786.278325 1816.203288 1757.782831 C 1816.203288 1757.782831 1530.990505 976.172273 1505.491963 984.744088 Z M 1505.491963 984.744088" stroke="#000" stroke-width="30" stroke-miterlimit="10"/></g><path fill="#E8E8E8" d="M 1065.542969 222.476562 C 1067.699219 221.75 1047.15625 154.6875 1047.15625 154.6875 C 1046.347656 152.28125 1043.957031 150.917969 1041.796875 151.632812 C 1039.648438 152.359375 1038.5625 154.898438 1039.363281 157.300781 C 1039.363281 157.300781 1063.394531 223.191406 1065.542969 222.476562"/><g clip-path="url(#b)"><path stroke-linecap="round" transform="matrix(.08426 0 0 -.0843 879.831 305.493)" fill="none" stroke-linejoin="round" d="M 2204.105654 984.744088 C 2229.696918 993.315904 1985.884495 1788.780369 1985.884495 1788.780369 C 1976.287771 1817.322197 1947.914848 1833.492811 1922.277223 1825.013664 C 1896.778681 1816.395514 1883.890327 1786.278325 1893.394329 1757.782831 C 1893.394329 1757.782831 2178.607112 976.172273 2204.105654 984.744088 Z M 2204.105654 984.744088" stroke="#000" stroke-width="30" stroke-miterlimit="10"/></g><path fill="#E8E8E8" d="M 1044.957031 151.8125 C 1044.957031 156.699219 1041 160.664062 1036.113281 160.664062 C 1031.222656 160.664062 1027.265625 156.699219 1027.265625 151.8125 C 1027.265625 146.921875 1031.222656 142.957031 1036.113281 142.957031 C 1041 142.957031 1044.957031 146.921875 1044.957031 151.8125"/><path stroke-linecap="round" transform="matrix(.08426 0 0 -.0843 879.831 305.493)" fill="none" stroke-linejoin="round" d="M 1959.783261 1822.882294 C 1959.783261 1764.918288 1912.819582 1717.889139 1854.821989 1717.889139 C 1796.778035 1717.889139 1749.814357 1764.918288 1749.814357 1822.882294 C 1749.814357 1880.892633 1796.778035 1927.921782 1854.821989 1927.921782 C 1912.819582 1927.921782 1959.783261 1880.892633 1959.783261 1822.882294 Z M 1959.783261 1822.882294" stroke="#000" stroke-width="30" stroke-miterlimit="10"/><path fill="#E8E8E8" d="M 1052.40625 131.082031 C 1052.40625 140.085938 1045.109375 147.386719 1036.113281 147.386719 C 1027.113281 147.386719 1019.824219 140.085938 1019.824219 131.082031 C 1019.824219 122.085938 1027.113281 114.785156 1036.113281 114.785156 C 1045.109375 114.785156 1052.40625 122.085938 1052.40625 131.082031"/><path stroke-linecap="round" transform="matrix(.08426 0 0 -.0843 879.831 305.493)" fill="none" stroke-linejoin="round" d="M 2048.19366 2068.777559 C 2048.19366 1961.977373 1961.591339 1875.378871 1854.821989 1875.378871 C 1748.006279 1875.378871 1661.496679 1961.977373 1661.496679 2068.777559 C 1661.496679 2175.485077 1748.006279 2262.083579 1854.821989 2262.083579 C 1961.591339 2262.083579 2048.19366 2175.485077 2048.19366 2068.777559 Z M 2048.19366 2068.777559" stroke="#000" stroke-width="30" stroke-miterlimit="10"/><path fill="#E8E8E8" d="M 997.992188 95.148438 L 979.632812 95.148438 L 979.632812 80.453125 L 997.992188 80.453125 L 997.992188 95.148438"/><path stroke-linecap="round" transform="matrix(.08426 0 0 -.0843 879.831 305.493)" fill="none" stroke-linejoin="round" d="M 1402.385131 2495.005286 L 1184.488499 2495.005286 L 1184.488499 2669.314309 L 1402.385131 2669.314309 Z M 1402.385131 2495.005286" stroke="#000" stroke-width="30" stroke-miterlimit="10"/><path fill="#E8E8E8" d="M 1105.824219 127.597656 L 1096.050781 127.597656 L 1096.050781 75.714844 L 1105.824219 75.714844 L 1105.824219 127.597656"/><path stroke-linecap="round" transform="matrix(.08426 0 0 -.0843 879.831 305.493)" fill="none" stroke-linejoin="round" d="M 2682.180138 2110.107609 L 2566.184952 2110.107609 L 2566.184952 2725.517618 L 2682.180138 2725.517618 Z M 2682.180138 2110.107609" stroke="#000" stroke-width="30" stroke-miterlimit="10"/><path fill="#E8E8E8" d="M 1077.683594 123.890625 C 1077.683594 127.574219 1074.632812 130.558594 1070.867188 130.558594 L 1000.066406 130.558594 C 996.300781 130.558594 993.25 127.574219 993.25 123.890625 L 993.25 79.425781 C 993.25 75.742188 996.300781 72.757812 1000.066406 72.757812 L 1070.867188 72.757812 C 1074.632812 72.757812 1077.683594 75.742188 1077.683594 79.425781 L 1077.683594 123.890625"/><path stroke-linecap="round" transform="matrix(.08426 0 0 -.0843 879.831 305.493)" fill="none" stroke-linejoin="round" d="M 2348.195598 2154.078705 C 2348.195598 2110.385614 2311.987668 2074.986333 2267.295678 2074.986333 L 1427.002815 2074.986333 C 1382.310824 2074.986333 1346.102895 2110.385614 1346.102895 2154.078705 L 1346.102895 2681.500188 C 1346.102895 2725.193279 1382.310824 2760.592559 1427.002815 2760.592559 L 2267.295678 2760.592559 C 2311.987668 2760.592559 2348.195598 2725.193279 2348.195598 2681.500188 Z M 2348.195598 2154.078705" stroke="#000" stroke-width="30" stroke-miterlimit="10"/><path d="M 1075.679688 131.746094 C 1075.679688 132.5625 1075.082031 133.230469 1074.347656 133.230469 L 996.585938 133.230469 C 995.851562 133.230469 995.253906 132.5625 995.253906 131.746094 C 995.253906 130.929688 995.851562 130.261719 996.585938 130.261719 L 1074.347656 130.261719 C 1075.082031 130.261719 1075.679688 130.929688 1075.679688 131.746094"/><path d="M 1075.679688 134.5625 C 1075.679688 135.378906 1075.082031 136.046875 1074.347656 136.046875 L 996.585938 136.046875 C 995.851562 136.046875 995.253906 135.378906 995.253906 134.5625 C 995.253906 133.746094 995.851562 133.078125 996.585938 133.078125 L 1074.347656 133.078125 C 1075.082031 133.078125 1075.679688 133.746094 1075.679688 134.5625"/><path d="M 1081.238281 122.109375 C 1081.238281 123.097656 1080.4375 123.890625 1079.460938 123.890625 C 1078.484375 123.890625 1077.683594 123.097656 1077.683594 122.109375 L 1077.683594 81.203125 C 1077.683594 80.21875 1078.484375 79.425781 1079.460938 79.425781 C 1080.4375 79.425781 1081.238281 80.21875 1081.238281 81.203125 L 1081.238281 122.109375"/><path fill="#E8E8E8" d="M 1094.863281 126.34375 L 1080.945312 120.035156 L 1080.945312 83.277344 L 1094.863281 76.972656 L 1094.863281 126.34375"/><path stroke-linecap="round" transform="matrix(.08426 0 0 -.0843 879.831 305.493)" fill="none" stroke-linejoin="round" d="M 2552.091212 2124.980867 L 2386.90702 2199.810499 L 2386.90702 2635.814728 L 2552.091212 2710.598026 Z M 2552.091212 2124.980867" stroke="#000" stroke-width="30" stroke-miterlimit="10"/><path d="M 1097.238281 127.445312 C 1097.238281 128.265625 1096.574219 128.929688 1095.757812 128.929688 C 1094.941406 128.929688 1094.273438 128.265625 1094.273438 127.445312 L 1094.273438 75.867188 C 1094.273438 75.050781 1094.941406 74.382812 1095.757812 74.382812 C 1096.574219 74.382812 1097.238281 75.050781 1097.238281 75.867188 L 1097.238281 127.445312"/><path d="M 1071.761719 106.621094 L 1035.910156 106.621094 L 1035.910156 86.761719 L 1071.761719 86.761719 L 1071.761719 106.621094"/><path d="M 1003.207031 92.542969 C 1003.207031 94.09375 1001.953125 95.359375 1000.394531 95.359375 C 998.84375 95.359375 997.582031 94.09375 997.582031 92.542969 C 997.582031 90.992188 998.84375 89.726562 1000.394531 89.726562 C 1001.953125 89.726562 1003.207031 90.992188 1003.207031 92.542969"/><path d="M 1003.175781 99.507812 C 1003.175781 101.066406 1001.910156 102.324219 1000.359375 102.324219 C 998.800781 102.324219 997.546875 101.066406 997.546875 99.507812 C 997.546875 97.957031 998.800781 96.691406 1000.359375 96.691406 C 1001.910156 96.691406 1003.175781 97.957031 1003.175781 99.507812"/><path d="M 1003.175781 106.621094 C 1003.175781 108.183594 1001.910156 109.4375 1000.359375 109.4375 C 998.800781 109.4375 997.546875 108.183594 997.546875 106.621094 C 997.546875 105.0625 998.800781 103.808594 1000.359375 103.808594 C 1001.910156 103.808594 1003.175781 105.0625 1003.175781 106.621094"/><path d="M 1003.175781 113.738281 C 1003.175781 115.289062 1001.910156 116.554688 1000.359375 116.554688 C 998.800781 116.554688 997.546875 115.289062 997.546875 113.738281 C 997.546875 112.179688 998.800781 110.921875 1000.359375 110.921875 C 1001.910156 110.921875 1003.175781 112.179688 1003.175781 113.738281"/><path d="M 1068.945312 113.984375 C 1067.386719 113.984375 1066.132812 112.71875 1066.132812 111.167969 C 1066.132812 109.605469 1067.386719 108.351562 1068.945312 108.351562 C 1070.496094 108.351562 1071.761719 109.605469 1071.761719 111.167969 C 1071.761719 112.71875 1070.496094 113.984375 1068.945312 113.984375"/><path d="M 1061.976562 113.941406 C 1060.429688 113.941406 1059.164062 112.683594 1059.164062 111.125 C 1059.164062 109.566406 1060.429688 108.308594 1061.976562 108.308594 C 1063.539062 108.308594 1064.800781 109.566406 1064.800781 111.125 C 1064.800781 112.683594 1063.539062 113.941406 1061.976562 113.941406"/><path d="M 1054.875 113.941406 C 1053.316406 113.941406 1052.0625 112.683594 1052.0625 111.125 C 1052.0625 109.566406 1053.316406 108.308594 1054.875 108.308594 C 1056.425781 108.308594 1057.691406 109.566406 1057.691406 111.125 C 1057.691406 112.683594 1056.425781 113.941406 1054.875 113.941406"/><path d="M 1047.765625 113.941406 C 1046.207031 113.941406 1044.949219 112.683594 1044.949219 111.125 C 1044.949219 109.566406 1046.207031 108.308594 1047.765625 108.308594 C 1049.316406 108.308594 1050.578125 109.566406 1050.578125 111.125 C 1050.578125 112.683594 1049.316406 113.941406 1047.765625 113.941406"/><path d="M 1025.765625 113.476562 L 1042.878906 113.476562 L 1042.878906 108.804688 L 1025.765625 108.804688 L 1025.765625 113.476562"/><path fill="#E8E8E8" d="M 1082.425781 59.976562 C 1082.425781 71.433594 1073.140625 80.722656 1061.683594 80.722656 C 1050.234375 80.722656 1040.949219 71.433594 1040.949219 59.976562 C 1040.949219 48.519531 1050.234375 39.230469 1061.683594 39.230469 C 1073.140625 39.230469 1082.425781 48.519531 1082.425781 59.976562"/><path stroke-linecap="round" transform="matrix(.08426 0 0 -.0843 879.831 305.493)" fill="none" stroke-linejoin="round" d="M 2404.477834 2912.197856 C 2404.477834 2776.299832 2294.277771 2666.117254 2158.301001 2666.117254 C 2022.416952 2666.117254 1912.216889 2776.299832 1912.216889 2912.197856 C 1912.216889 3048.09588 2022.416952 3158.278458 2158.301001 3158.278458 C 2294.277771 3158.278458 2404.477834 3048.09588 2404.477834 2912.197856 Z M 2404.477834 2912.197856" stroke="#000" stroke-width="30" stroke-miterlimit="10"/><path d="M 1078.425781 59.976562 C 1078.425781 69.226562 1070.925781 76.726562 1061.683594 76.726562 C 1052.441406 76.726562 1044.949219 69.226562 1044.949219 59.976562 C 1044.949219 50.726562 1052.441406 43.226562 1061.683594 43.226562 C 1070.925781 43.226562 1078.425781 50.726562 1078.425781 59.976562"/><path fill="#E8E8E8" d="M 1070.429688 59.976562 C 1070.429688 58.265625 1069.925781 56.664062 1069.074219 55.3125 L 1073.3125 51.066406 L 1070.589844 48.34375 L 1066.351562 52.589844 C 1064.996094 51.730469 1063.402344 51.234375 1061.683594 51.234375 C 1059.972656 51.234375 1058.371094 51.730469 1057.023438 52.589844 L 1052.785156 48.34375 L 1050.066406 51.066406 L 1054.300781 55.3125 C 1053.453125 56.664062 1052.945312 58.265625 1052.945312 59.976562 C 1052.945312 61.695312 1053.453125 63.289062 1054.300781 64.636719 L 1050.066406 68.886719 L 1052.785156 71.609375 L 1057.023438 67.363281 C 1058.371094 68.222656 1059.972656 68.71875 1061.683594 68.71875 C 1063.402344 68.71875 1064.996094 68.222656 1066.351562 67.363281 L 1070.589844 71.609375 L 1073.3125 68.886719 L 1069.074219 64.636719 C 1069.925781 63.289062 1070.429688 61.695312 1070.429688 59.976562"/><path stroke-linecap="round" transform="matrix(.08426 0 0 -.0843 879.831 305.493)" fill="none" stroke-linejoin="round" d="M 2262.103247 2912.197856 C 2262.103247 2932.492208 2256.12268 2951.489204 2246.015985 2967.520816 L 2296.317655 3017.886023 L 2264.004048 3050.180916 L 2213.702378 2999.815709 C 2197.615116 3010.009219 2178.699834 3015.893655 2158.301001 3015.893655 C 2137.994889 3015.893655 2118.986885 3010.009219 2102.992345 2999.815709 L 2052.690676 3050.180916 L 2020.377069 3017.886023 L 2070.678738 2967.520816 C 2060.618404 2951.489204 2054.591476 2932.492208 2054.591476 2912.197856 C 2054.591476 2891.810836 2060.618404 2872.906508 2070.678738 2856.92123 L 2020.377069 2806.509689 L 2052.690676 2774.214796 L 2102.992345 2824.580003 C 2118.986885 2814.386493 2137.994889 2808.502057 2158.301001 2808.502057 C 2178.699834 2808.502057 2197.615116 2814.386493 2213.702378 2824.580003 L 2264.004048 2774.214796 L 2296.317655 2806.509689 L 2246.015985 2856.92123 C 2256.12268 2872.906508 2262.103247 2891.810836 2262.103247 2912.197856 Z M 2262.103247 2912.197856" stroke="#000" stroke-width="30" stroke-miterlimit="10"/><path fill="#E8E8E8" d="M 1040.804688 55.382812 C 1040.804688 69.375 1029.464844 80.722656 1015.46875 80.722656 C 1001.480469 80.722656 990.140625 69.375 990.140625 55.382812 C 990.140625 41.386719 1001.480469 30.039062 1015.46875 30.039062 C 1029.464844 30.039062 1040.804688 41.386719 1040.804688 55.382812"/><g clip-path="url(#c)"><path stroke-linecap="round" transform="matrix(.08426 0 0 -.0843 879.831 305.493)" fill="none" stroke-linejoin="round" d="M 1910.501533 2966.686801 C 1910.501533 2800.717922 1775.915592 2666.117254 1609.804181 2666.117254 C 1443.785491 2666.117254 1309.19955 2800.717922 1309.19955 2966.686801 C 1309.19955 3132.702014 1443.785491 3267.302682 1609.804181 3267.302682 C 1775.915592 3267.302682 1910.501533 3132.702014 1910.501533 2966.686801 Z M 1910.501533 2966.686801" stroke="#000" stroke-width="30" stroke-miterlimit="10"/></g><path d="M 1035.917969 55.382812 C 1035.917969 66.679688 1026.757812 75.84375 1015.46875 75.84375 C 1004.179688 75.84375 995.027344 66.679688 995.027344 55.382812 C 995.027344 44.085938 1004.179688 34.929688 1015.46875 34.929688 C 1026.757812 34.929688 1035.917969 44.085938 1035.917969 55.382812"/><path fill="#E8E8E8" d="M 1026.144531 55.382812 C 1026.144531 53.28125 1025.539062 51.335938 1024.492188 49.683594 L 1029.675781 44.496094 L 1026.347656 41.175781 L 1021.171875 46.351562 C 1019.519531 45.308594 1017.566406 44.699219 1015.46875 44.699219 C 1013.371094 44.699219 1011.425781 45.308594 1009.773438 46.351562 L 1004.589844 41.175781 L 1001.269531 44.496094 L 1006.445312 49.683594 C 1005.398438 51.335938 1004.792969 53.28125 1004.792969 55.382812 C 1004.792969 57.480469 1005.398438 59.4375 1006.445312 61.082031 L 1001.269531 66.265625 L 1004.589844 69.59375 L 1009.773438 64.410156 C 1011.425781 65.457031 1013.371094 66.0625 1015.46875 66.0625 C 1017.566406 66.0625 1019.519531 65.457031 1021.171875 64.410156 L 1026.347656 69.59375 L 1029.675781 66.265625 L 1024.492188 61.082031 C 1025.539062 59.4375 1026.144531 57.480469 1026.144531 55.382812"/><path stroke-linecap="round" transform="matrix(.08426 0 0 -.0843 879.831 305.493)" fill="none" stroke-linejoin="round" d="M 1736.508754 2966.686801 C 1736.508754 2991.614567 1729.322801 3014.688967 1716.898057 3034.288307 L 1778.419085 3095.820041 L 1738.919525 3135.204058 L 1677.491219 3073.811326 C 1657.880523 3086.182541 1634.70003 3093.410666 1609.804181 3093.410666 C 1584.908331 3093.410666 1561.820561 3086.182541 1542.209864 3073.811326 L 1480.688836 3135.204058 L 1441.281998 3095.820041 L 1502.710304 3034.288307 C 1490.28556 3014.688967 1483.099607 2991.614567 1483.099607 2966.686801 C 1483.099607 2941.80537 1490.28556 2918.591967 1502.710304 2899.085295 L 1441.281998 2837.599895 L 1480.688836 2798.076876 L 1542.209864 2859.60861 C 1561.820561 2847.191062 1584.908331 2840.00927 1609.804181 2840.00927 C 1634.70003 2840.00927 1657.880523 2847.191062 1677.491219 2859.60861 L 1738.919525 2798.076876 L 1778.419085 2837.599895 L 1716.898057 2899.085295 C 1729.322801 2918.591967 1736.508754 2941.80537 1736.508754 2966.686801 Z M 1736.508754 2966.686801" stroke="#000" stroke-width="30" stroke-miterlimit="10"/><g clip-path="url(#d)"><path d="M 982.53125 94.855469 C 982.53125 96.835938 980.929688 98.4375 978.960938 98.4375 C 976.988281 98.4375 975.386719 96.835938 975.386719 94.855469 L 975.386719 80.742188 C 975.386719 78.769531 976.988281 77.167969 978.960938 77.167969 C 980.929688 77.167969 982.53125 78.769531 982.53125 80.742188 L 982.53125 94.855469"/></g><path d="M 1051.5625 146.542969 C 1051.5625 149.027344 1050.113281 151.035156 1048.328125 151.035156 L 1023.894531 151.035156 C 1022.109375 151.035156 1020.667969 149.027344 1020.667969 146.542969 C 1020.667969 144.054688 1022.109375 142.039062 1023.894531 142.039062 L 1048.328125 142.039062 C 1050.113281 142.039062 1051.5625 144.054688 1051.5625 146.542969"/><path fill="#E8E8E8" d="M 1036.113281 221.785156 C 1033.84375 221.785156 1032.007812 159.078125 1032.007812 159.078125 C 1032.007812 156.808594 1033.84375 154.972656 1036.113281 154.972656 C 1038.386719 154.972656 1040.222656 156.808594 1040.222656 159.078125 C 1040.222656 159.078125 1038.386719 221.785156 1036.113281 221.785156"/><g clip-path="url(#e)"><path stroke-linecap="round" transform="matrix(.08426 0 0 -.0843 879.831 305.493)" fill="none" stroke-linejoin="round" d="M 1854.821989 992.94523 C 1827.886257 992.94523 1806.096593 1736.700799 1806.096593 1736.700799 C 1806.096593 1763.620932 1827.886257 1785.397977 1854.821989 1785.397977 C 1881.804083 1785.397977 1903.593746 1763.620932 1903.593746 1736.700799 C 1903.593746 1736.700799 1881.804083 992.94523 1854.821989 992.94523 Z M 1854.821989 992.94523" stroke="#000" stroke-width="30" stroke-miterlimit="10"/></g><path fill="#231F1F" d="M 1120.367188 113.925781 C 1120.183594 99.320312 1104.359375 97.90625 1104.359375 97.90625 C 1104.359375 97.90625 1120.746094 98.46875 1120.367188 81.878906 C 1120.65625 98.378906 1136.386719 97.90625 1136.386719 97.90625 C 1136.386719 97.90625 1120.367188 99.320312 1120.367188 113.925781"/><g clip-path="url(#f)"><path fill="#231F1F" d="M 1133.75 119.378906 C 1133.640625 111.359375 1124.953125 110.578125 1124.953125 110.578125 C 1124.953125 110.578125 1133.949219 110.890625 1133.75 101.773438 C 1133.902344 110.839844 1142.535156 110.578125 1142.535156 110.578125 C 1142.535156 110.578125 1133.75 111.359375 1133.75 119.378906"/></g><path fill="#231F1F" d="M 1133.488281 95.796875 C 1133.429688 91.261719 1128.507812 90.824219 1128.507812 90.824219 C 1128.507812 90.824219 1133.605469 91 1133.488281 85.851562 C 1133.570312 90.96875 1138.457031 90.824219 1138.457031 90.824219 C 1138.457031 90.824219 1133.488281 91.261719 1133.488281 95.796875"/><g fill="#C78F03"><g><g><path d="M 39 0 L 22.199219 0 L 2.398438 -146.996094 L 22.398438 -146.996094 L 31 -70.597656 L 31.398438 -65.796875 L 33 -65.796875 L 33.597656 -70.597656 L 42.800781 -146.996094 L 58.398438 -146.996094 L 67.597656 -70.597656 L 68.199219 -65.796875 L 69.796875 -65.796875 L 70.199219 -70.597656 L 78.796875 -146.996094 L 98.796875 -146.996094 L 78.996094 0 L 62.199219 0 L 52.199219 -69.597656 L 51 -78.199219 L 50.199219 -78.199219 L 49 -69.597656 Z M 39 0" transform="translate(52.334 215.3)"/></g></g></g><g fill="#C78F03"><g><g><path d="M 2 0 L 24.199219 -146.996094 L 50.597656 -146.996094 L 72.796875 0 L 51.796875 0 L 47.796875 -30 L 27 -30 L 23 0 Z M 38.597656 -99.199219 L 38 -102.996094 L 36.800781 -102.996094 L 36.199219 -99.199219 L 30 -52.796875 L 44.800781 -52.796875 Z M 38.597656 -99.199219" transform="translate(185.731 215.3)"/></g></g></g><g fill="#C78F03"><g><g><path d="M 0.398438 -124.796875 L 0.398438 -146.996094 L 62.796875 -146.996094 L 62.796875 -124.796875 L 42.398438 -124.796875 L 42.398438 0 L 20.800781 0 L 20.800781 -124.796875 Z M 0.398438 -124.796875" transform="translate(292.73 215.3)"/></g></g></g><g fill="#C78F03"><g><g><path d="M 64.199219 -50.398438 L 64.199219 -30.199219 C 64 -24.199219 62.796875 -18.800781 60.597656 -14.199219 C 58.796875 -10.199219 56 -6.398438 52 -3.398438 C 48 -0.199219 42.597656 1.601562 35.398438 1.601562 C 28.199219 1.601562 22.597656 -0.199219 18.597656 -3.398438 C 14.601562 -6.398438 12 -10.199219 10.199219 -14.199219 C 8 -18.800781 6.800781 -24.199219 6.601562 -30.199219 L 6.601562 -116.796875 C 6.800781 -122.597656 8 -127.996094 10.199219 -132.597656 C 12 -136.597656 14.601562 -140.597656 18.597656 -143.597656 C 22.597656 -146.597656 28.199219 -148.597656 35.398438 -148.597656 C 42.597656 -148.597656 48 -146.597656 52 -143.597656 C 56 -140.597656 58.796875 -136.597656 60.597656 -132.597656 C 62.796875 -127.996094 64 -122.597656 64.199219 -116.796875 L 64.199219 -96.597656 L 44 -96.597656 L 44 -116.796875 C 44 -120.796875 43 -123.597656 40.800781 -125.996094 C 39.800781 -126.996094 38 -127.597656 35.800781 -127.597656 C 32 -127.597656 30.199219 -124.796875 29.199219 -122.195312 C 28.597656 -120.597656 28.398438 -118.796875 28.199219 -116.796875 L 28.199219 -30.199219 C 28.398438 -26 29.597656 -23.199219 31.597656 -21 C 32.597656 -20 34 -19.398438 35.800781 -19.398438 C 40.398438 -19.398438 42.199219 -21.800781 43.199219 -24.800781 C 43.800781 -26.199219 44 -28 44 -30.199219 L 44 -50.398438 Z M 64.199219 -50.398438" transform="translate(388.128 215.3)"/></g></g></g><g fill="#C78F03"><g><g><path d="M 46.398438 -64 L 29.597656 -64 L 29.597656 0 L 8 0 L 8 -146.996094 L 29.597656 -146.996094 L 29.597656 -86.199219 L 46.398438 -86.199219 L 46.398438 -146.996094 L 68 -146.996094 L 68 0 L 46.398438 0 Z M 46.398438 -64" transform="translate(489.526 215.3)"/></g></g></g><g fill="#BA181B"><g><g><path d="M 8 -146.996094 L 29.597656 -146.996094 L 29.597656 -20 L 58.199219 -20 L 58.199219 0 L 8 0 Z M 8 -146.996094" transform="translate(597.713 215.3)"/></g></g></g><g fill="#BA181B"><g><g><path d="M 8 -146.996094 L 29.597656 -146.996094 L 29.597656 0 L 8 0 Z M 8 -146.996094" transform="translate(688.911 215.3)"/></g></g></g><g fill="#BA181B"><g><g><path d="M 43.800781 -107.597656 C 43.800781 -112.398438 43.597656 -117.796875 42.199219 -121.996094 C 40.800781 -125.996094 38.597656 -128.796875 35.199219 -128.796875 C 29.597656 -128.597656 27.800781 -122.796875 27.800781 -114.195312 C 27.800781 -109.199219 30 -103.996094 33.199219 -98.398438 C 36.398438 -92.796875 40.597656 -86.996094 44.800781 -80.796875 C 49.796875 -73.398438 54.796875 -65.796875 58.597656 -58.398438 C 62.398438 -51 65 -43.398438 65 -35.398438 C 65 -25.597656 63.398438 -16.398438 58.796875 -9.601562 C 54.199219 -2.800781 46.800781 1.601562 35 1.601562 C 21.199219 1.601562 13.398438 -3.601562 9 -11.601562 C 4.601562 -19.597656 3.601562 -30.199219 3.601562 -41.199219 L 24.800781 -43.199219 C 24.800781 -37 25 -30.800781 26.597656 -26.199219 C 28 -21.398438 30.398438 -18.199219 35 -18.199219 C 41.398438 -18.199219 43.800781 -25 43.800781 -34.398438 C 43.800781 -39.199219 41.398438 -44.800781 38.199219 -50.597656 C 36.398438 -53.398438 34.597656 -56.398438 32.597656 -59.398438 C 28.398438 -65.398438 23.800781 -72.199219 19 -79.597656 C 14.199219 -86.996094 10.601562 -94.597656 8.398438 -102.398438 C 7.199219 -106.199219 6.601562 -110.195312 6.601562 -114.195312 C 6.601562 -122.195312 8.398438 -130.796875 13 -137.398438 C 17.597656 -143.796875 24.597656 -148.394531 34.800781 -148.597656 C 47.796875 -148.796875 55.398438 -143.394531 59.597656 -135.597656 C 63.796875 -127.597656 65 -117.796875 65 -109.597656 Z M 43.800781 -107.597656" transform="translate(758.71 215.3)"/></g></g></g><g fill="#BA181B"><g><g><path d="M 0.398438 -124.796875 L 0.398438 -146.996094 L 62.796875 -146.996094 L 62.796875 -124.796875 L 42.398438 -124.796875 L 42.398438 0 L 20.800781 0 L 20.800781 -124.796875 Z M 0.398438 -124.796875" transform="translate(859.508 215.3)"/></g></g></g></svg>