<svg xmlns="http://www.w3.org/2000/svg" width="5184" viewBox="0 0 5184 2592" height="2592" version="1.0"><g fill="#FFF"><g><g><path d="M 475.984375 -389.296875 C 475.984375 -325.523438 457.175781 -276.257812 419.5625 -241.5 C 381.945312 -206.75 328.519531 -189.375 259.28125 -189.375 L 215.9375 -189.375 L 215.9375 0 L 61.6875 0 L 61.6875 -570.875 L 259.28125 -570.875 C 331.382812 -570.875 385.523438 -555.125 421.703125 -523.625 C 457.890625 -492.125 475.984375 -447.347656 475.984375 -389.296875 Z M 215.9375 -315.109375 L 244.046875 -315.109375 C 267.210938 -315.109375 285.628906 -321.613281 299.296875 -334.625 C 312.960938 -347.644531 319.796875 -365.609375 319.796875 -388.515625 C 319.796875 -427.046875 298.453125 -446.3125 255.765625 -446.3125 L 215.9375 -446.3125 Z M 215.9375 -315.109375" transform="translate(154.48 1643.045)"/></g></g><g><g><path d="M 205.390625 0 L 52.71875 0 L 52.71875 -607.578125 L 205.390625 -607.578125 Z M 205.390625 0" transform="translate(659.75 1643.045)"/></g></g><g><g><path d="M 341.265625 0 L 311.984375 -58.578125 L 308.859375 -58.578125 C 288.296875 -33.054688 267.34375 -15.609375 246 -6.234375 C 224.65625 3.128906 197.0625 7.8125 163.21875 7.8125 C 121.5625 7.8125 88.757812 -4.679688 64.8125 -29.671875 C 40.863281 -54.660156 28.890625 -89.804688 28.890625 -135.109375 C 28.890625 -182.222656 45.289062 -217.296875 78.09375 -240.328125 C 110.894531 -263.367188 158.398438 -276.320312 220.609375 -279.1875 L 294.421875 -281.53125 L 294.421875 -287.78125 C 294.421875 -324.21875 276.457031 -342.4375 240.53125 -342.4375 C 208.25 -342.4375 167.25 -331.503906 117.53125 -309.640625 L 73.40625 -410.390625 C 124.945312 -436.941406 190.023438 -450.21875 268.640625 -450.21875 C 325.390625 -450.21875 369.316406 -436.160156 400.421875 -408.046875 C 431.535156 -379.929688 447.09375 -340.625 447.09375 -290.125 L 447.09375 0 Z M 228.03125 -99.96875 C 246.519531 -99.96875 262.335938 -105.820312 275.484375 -117.53125 C 288.628906 -129.25 295.203125 -144.476562 295.203125 -163.21875 L 295.203125 -197.578125 L 260.046875 -196.015625 C 209.804688 -194.191406 184.6875 -175.707031 184.6875 -140.5625 C 184.6875 -113.5 199.132812 -99.96875 228.03125 -99.96875 Z M 228.03125 -99.96875" transform="translate(918.243 1643.045)"/></g></g><g><g><path d="M 254.203125 7.8125 C 181.828125 7.8125 126.960938 -11.707031 89.609375 -50.75 C 52.253906 -89.800781 33.578125 -145.90625 33.578125 -219.0625 C 33.578125 -292.46875 53.75 -349.34375 94.09375 -389.6875 C 134.445312 -430.039062 191.847656 -450.21875 266.296875 -450.21875 C 317.578125 -450.21875 365.867188 -439.023438 411.171875 -416.640625 L 366.265625 -303.78125 C 347.785156 -311.851562 330.734375 -318.296875 315.109375 -323.109375 C 299.492188 -327.929688 283.222656 -330.34375 266.296875 -330.34375 C 241.566406 -330.34375 222.429688 -320.707031 208.890625 -301.4375 C 195.359375 -282.175781 188.59375 -254.976562 188.59375 -219.84375 C 188.59375 -149.03125 214.753906 -113.625 267.078125 -113.625 C 311.859375 -113.625 354.8125 -126.640625 395.9375 -152.671875 L 395.9375 -31.234375 C 356.632812 -5.203125 309.390625 7.8125 254.203125 7.8125 Z M 254.203125 7.8125" transform="translate(1416.485 1643.045)"/></g></g><g><g><path d="M 266.296875 7.8125 C 192.628906 7.8125 135.425781 -11.773438 94.6875 -50.953125 C 53.945312 -90.128906 33.578125 -145.90625 33.578125 -218.28125 C 33.578125 -292.988281 52.445312 -350.320312 90.1875 -390.28125 C 127.9375 -430.238281 181.828125 -450.21875 251.859375 -450.21875 C 318.492188 -450.21875 369.96875 -432.835938 406.28125 -398.078125 C 442.59375 -363.328125 460.75 -313.285156 460.75 -247.953125 L 460.75 -180 L 187.8125 -180 C 188.851562 -155.269531 197.898438 -135.875 214.953125 -121.8125 C 232.003906 -107.757812 255.238281 -100.734375 284.65625 -100.734375 C 311.46875 -100.734375 336.128906 -103.269531 358.640625 -108.34375 C 381.160156 -113.425781 405.566406 -122.085938 431.859375 -134.328125 L 431.859375 -24.59375 C 407.910156 -12.363281 383.179688 -3.90625 357.671875 0.78125 C 332.160156 5.46875 301.703125 7.8125 266.296875 7.8125 Z M 257.328125 -346.34375 C 239.359375 -346.34375 224.320312 -340.679688 212.21875 -329.359375 C 200.113281 -318.035156 193.019531 -300.269531 190.9375 -276.0625 L 322.140625 -276.0625 C 321.617188 -297.40625 315.566406 -314.453125 303.984375 -327.203125 C 292.398438 -339.960938 276.847656 -346.34375 257.328125 -346.34375 Z M 257.328125 -346.34375" transform="translate(1847.566 1643.045)"/></g></g><g><g><path d="M 331.125 0 L 331.125 -241.3125 C 331.125 -300.664062 313.550781 -330.34375 278.40625 -330.34375 C 253.414062 -330.34375 235 -319.863281 223.15625 -298.90625 C 211.3125 -277.945312 205.390625 -243.128906 205.390625 -194.453125 L 205.390625 0 L 52.71875 0 L 52.71875 -607.578125 L 205.390625 -607.578125 L 205.390625 -521.28125 C 205.390625 -482.226562 203.304688 -437.710938 199.140625 -387.734375 L 206.171875 -387.734375 C 220.742188 -410.640625 238.050781 -426.78125 258.09375 -436.15625 C 278.144531 -445.53125 301.445312 -450.21875 328 -450.21875 C 377.457031 -450.21875 415.914062 -435.960938 443.375 -407.453125 C 470.84375 -378.953125 484.578125 -339.0625 484.578125 -287.78125 L 484.578125 0 Z M 331.125 0" transform="translate(2341.903 1643.045)"/></g></g><g><g><path d="M 475.203125 -222.171875 C 475.203125 -149.804688 455.742188 -93.382812 416.828125 -52.90625 C 377.910156 -12.425781 323.441406 7.8125 253.421875 7.8125 C 186.253906 7.8125 132.820312 -12.878906 93.125 -54.265625 C 53.425781 -95.660156 33.578125 -151.628906 33.578125 -222.171875 C 33.578125 -294.285156 53.035156 -350.320312 91.953125 -390.28125 C 130.867188 -430.238281 185.472656 -450.21875 255.765625 -450.21875 C 299.234375 -450.21875 337.625 -440.972656 370.9375 -422.484375 C 404.257812 -404.003906 429.96875 -377.519531 448.0625 -343.03125 C 466.15625 -308.539062 475.203125 -268.253906 475.203125 -222.171875 Z M 188.59375 -222.171875 C 188.59375 -184.171875 193.671875 -155.210938 203.828125 -135.296875 C 213.984375 -115.378906 231.035156 -105.421875 254.984375 -105.421875 C 278.671875 -105.421875 295.394531 -115.378906 305.15625 -135.296875 C 314.914062 -155.210938 319.796875 -184.171875 319.796875 -222.171875 C 319.796875 -259.921875 314.847656 -288.425781 304.953125 -307.6875 C 295.066406 -326.957031 278.148438 -336.59375 254.203125 -336.59375 C 230.773438 -336.59375 213.984375 -327.023438 203.828125 -307.890625 C 193.671875 -288.753906 188.59375 -260.179688 188.59375 -222.171875 Z M 188.59375 -222.171875" transform="translate(2877.63 1643.045)"/></g></g><g><g><path d="M 205.390625 0 L 52.71875 0 L 52.71875 -607.578125 L 205.390625 -607.578125 Z M 205.390625 0" transform="translate(3387.196 1643.045)"/></g></g><g><g><path d="M 190.15625 7.8125 C 158.65625 7.8125 131.125 -1.164062 107.5625 -19.125 C 84.007812 -37.09375 65.789062 -63.515625 52.90625 -98.390625 C 40.019531 -133.273438 33.578125 -174.015625 33.578125 -220.609375 C 33.578125 -292.460938 48.023438 -348.691406 76.921875 -389.296875 C 105.816406 -429.910156 145.515625 -450.21875 196.015625 -450.21875 C 220.742188 -450.21875 242.414062 -445.269531 261.03125 -435.375 C 279.644531 -425.476562 296.628906 -408.816406 311.984375 -385.390625 L 315.109375 -385.390625 C 310.160156 -420.015625 307.6875 -454.640625 307.6875 -489.265625 L 307.6875 -607.578125 L 461.53125 -607.578125 L 461.53125 0 L 346.34375 0 L 313.546875 -55.84375 L 307.6875 -55.84375 C 281.394531 -13.40625 242.21875 7.8125 190.15625 7.8125 Z M 252.640625 -112.84375 C 277.109375 -112.84375 294.351562 -120.519531 304.375 -135.875 C 314.394531 -151.238281 319.796875 -174.929688 320.578125 -206.953125 L 320.578125 -219.0625 C 320.578125 -258.101562 314.976562 -285.890625 303.78125 -302.421875 C 292.59375 -318.953125 275.023438 -327.21875 251.078125 -327.21875 C 231.023438 -327.21875 215.46875 -317.78125 204.40625 -298.90625 C 193.34375 -280.03125 187.8125 -253.15625 187.8125 -218.28125 C 187.8125 -183.914062 193.40625 -157.75 204.59375 -139.78125 C 215.789062 -121.820312 231.804688 -112.84375 252.640625 -112.84375 Z M 252.640625 -112.84375" transform="translate(3645.689 1643.045)"/></g></g><g><g><path d="M 266.296875 7.8125 C 192.628906 7.8125 135.425781 -11.773438 94.6875 -50.953125 C 53.945312 -90.128906 33.578125 -145.90625 33.578125 -218.28125 C 33.578125 -292.988281 52.445312 -350.320312 90.1875 -390.28125 C 127.9375 -430.238281 181.828125 -450.21875 251.859375 -450.21875 C 318.492188 -450.21875 369.96875 -432.835938 406.28125 -398.078125 C 442.59375 -363.328125 460.75 -313.285156 460.75 -247.953125 L 460.75 -180 L 187.8125 -180 C 188.851562 -155.269531 197.898438 -135.875 214.953125 -121.8125 C 232.003906 -107.757812 255.238281 -100.734375 284.65625 -100.734375 C 311.46875 -100.734375 336.128906 -103.269531 358.640625 -108.34375 C 381.160156 -113.425781 405.566406 -122.085938 431.859375 -134.328125 L 431.859375 -24.59375 C 407.910156 -12.363281 383.179688 -3.90625 357.671875 0.78125 C 332.160156 5.46875 301.703125 7.8125 266.296875 7.8125 Z M 257.328125 -346.34375 C 239.359375 -346.34375 224.320312 -340.679688 212.21875 -329.359375 C 200.113281 -318.035156 193.019531 -300.269531 190.9375 -276.0625 L 322.140625 -276.0625 C 321.617188 -297.40625 315.566406 -314.453125 303.984375 -327.203125 C 292.398438 -339.960938 276.847656 -346.34375 257.328125 -346.34375 Z M 257.328125 -346.34375" transform="translate(4159.94 1643.045)"/></g></g><g><g><path d="M 319.796875 -450.21875 C 333.078125 -450.21875 345.703125 -449.175781 357.671875 -447.09375 L 366.265625 -445.53125 L 352.59375 -301.4375 C 340.101562 -304.5625 322.789062 -306.125 300.65625 -306.125 C 267.34375 -306.125 243.132812 -298.507812 228.03125 -283.28125 C 212.9375 -268.050781 205.390625 -246.125 205.390625 -217.5 L 205.390625 0 L 52.71875 0 L 52.71875 -442.40625 L 166.34375 -442.40625 L 190.15625 -371.734375 L 197.578125 -371.734375 C 210.335938 -395.160156 228.101562 -414.097656 250.875 -428.546875 C 273.65625 -442.992188 296.628906 -450.21875 319.796875 -450.21875 Z M 319.796875 -450.21875" transform="translate(4654.278 1643.045)"/></g></g></g></svg>